#!OML:ASF F:\VICON\USERDATA\INSTALL\rory3\rory3.ASF
:FULLY-SPECIFIED
:DEGREES
1395
root 0.495721 17.5664 4.49873 210.392 -100.338 -210.717
lowerback 4.93098 1.97582 -1.09625
upperback -6.05531 2.36308 -1.35109
thorax -9.15054 1.13812 -1.11362
lowerneck -20.9604 -9.4607 -17.2711
upperneck -5.32649 -9.45247 18.0403
head 3.49794 -3.93167 7.59985
rclavicle 2.80286e-014 3.49861e-014
rhumerus 86.9134 -29.36 -34.2673
rradius 29.0982
rwrist 7.32004
rhand -15.7418 0.217013
rfingers 7.12502
rthumb 10.4493 -29.5033
lclavicle 2.80286e-014 3.49861e-014
lhumerus 64.6416 26.584 2.45828
lradius 81.1623
lwrist 0.591493
lhand -11.841 9.77163
lfingers 7.12502
lthumb 14.2102 39.2655
rfemur -4.05926 1.91309 16.6078
rtibia 33.4428
rfoot -20.8946 -3.52864
rtoes -10.2021
lfemur -12.5377 -2.49864 -8.37006
ltibia 38.9501
lfoot -17.6715 -8.71326
ltoes -24.9892
1396
root 0.529031 17.4829 4.54152 210.421 -100.422 -210.784
lowerback 5.0357 1.97486 -0.849463
upperback -5.82875 2.38622 -1.43721
thorax -8.94927 1.13365 -1.34278
lowerneck -20.7535 -9.48257 -17.2021
upperneck -5.92025 -9.4936 18.1175
head 3.29981 -3.97228 7.61962
rclavicle -3.37934e-015 -7.95139e-015
rhumerus 86.203 -28.8985 -33.359
rradius 29.5875
rwrist 6.00274
rhand -13.2444 1.36398
rfingers 7.12502
rthumb 12.8576 -28.22
lclavicle -3.37934e-015 -7.95139e-015
lhumerus 63.6797 26.2191 1.90389
lradius 82.9503
lwrist 0.57844
lhand -11.4038 9.58574
lfingers 7.12502
lthumb 14.6315 39.0496
rfemur -4.04934 1.95078 16.6507
rtibia 33.5426
rfoot -22.1906 -3.74323
rtoes -9.20056
lfemur -12.6573 -1.90229 -8.58036
ltibia 39.2607
lfoot -19.0891 -8.45043
ltoes -22.8914
1397
root 0.56486 17.4032 4.58247 210.117 -100.451 -210.558
lowerback 5.21982 1.96497 -0.672707
upperback -5.60163 2.38966 -1.52205
thorax -8.79845 1.12456 -1.53227
lowerneck -20.6897 -9.47929 -17.0938
upperneck -6.34256 -9.49576 18.0919
head 3.15677 -3.98884 7.60009
rclavicle -5.08889e-014 1.59028e-015
rhumerus 86.8425 -27.6444 -34.1524
rradius 29.4438
rwrist 6.17821
rhand -10.7928 2.43922
rfingers 7.12502
rthumb 15.22 -26.9809
lclavicle -5.08889e-014 1.59028e-015
lhumerus 62.6589 25.7101 1.47155
lradius 84.5349
lwrist 0.651916
lhand -11.1496 9.13472
lfingers 7.12502
lthumb 14.8764 38.5806
rfemur -4.09515 2.06527 16.6446
rtibia 33.7719
rfoot -23.3735 -4.22357
rtoes -9.27353
lfemur -12.6836 -1.53267 -8.87237
ltibia 39.4779
lfoot -20.4459 -7.92563
ltoes -20.8179
1398
root 0.601744 17.3323 4.62028 209.318 -100.466 -209.757
lowerback 5.30866 1.91342 -0.646988
upperback -5.33358 2.3215 -1.64497
thorax -8.55395 1.08984 -1.66306
lowerneck -20.9866 -9.46704 -16.727
upperneck -6.57192 -9.50804 17.982
head 3.10632 -4.00088 7.49948
rclavicle 2.20651e-014 1.74931e-014
rhumerus 85.1115 -27.7107 -31.7167
rradius 30.7116
rwrist 3.20075
rhand -8.32103 3.20829
rfingers 7.12502
rthumb 17.5999 -26.0151
lclavicle 2.20651e-014 1.74931e-014
lhumerus 61.5633 25.2106 0.927993
lradius 85.9608
lwrist 0.70775
lhand -10.943 8.87789
lfingers 7.12502
lthumb 15.0754 38.309
rfemur -4.29186 2.10127 16.5184
rtibia 34.0835
rfoot -24.3007 -4.58808
rtoes -8.30337
lfemur -12.7833 -1.40129 -9.28412
ltibia 39.6277
lfoot -21.7512 -7.23644
ltoes -20.4182
1399
root 0.637675 17.2685 4.65763 208.769 -100.569 -209.11
lowerback 5.23202 1.80152 -0.53354
upperback -5.02723 2.17819 -1.83232
thorax -8.16806 1.01234 -1.89347
lowerneck -21.3845 -9.46597 -16.2495
upperneck -6.9804 -9.56112 18.2168
head 3.04876 -4.02795 7.49
rclavicle 5.66536e-014 -2.54444e-014
rhumerus 85.5159 -26.5923 -32.4745
rradius 30.9005
rwrist 3.21443
rhand -6.37984 4.68239
rfingers 7.12502
rthumb 19.4672 -24.3631
lclavicle 5.66536e-014 -2.54444e-014
lhumerus 60.2908 24.8262 -0.118328
lradius 87.7178
lwrist 1.14305
lhand -10.601 9.00023
lfingers 7.12502
lthumb 15.4049 38.4063
rfemur -4.64549 2.06296 16.4738
rtibia 34.4386
rfoot -24.99 -4.91476
rtoes -6.30242
lfemur -13.0066 -1.59924 -9.6113
ltibia 39.7604
lfoot -22.8638 -6.41309
ltoes -20.5183
1400
root 0.674 17.2192 4.69213 208.835 -100.732 -209.016
lowerback 5.18688 1.9367 -0.466744
upperback -4.99495 2.38313 -1.65542
thorax -8.10571 1.11683 -1.76638
lowerneck -20.577 -9.9082 -17.5381
upperneck -7.82323 -9.93677 19.1186
head 2.8811 -4.21042 7.97907
rclavicle -2.44505e-014 3.02153e-014
rhumerus 84.5558 -25.4589 -31.0702
rradius 31.6252
rwrist 2.45456
rhand -4.51986 5.73954
rfingers 7.12502
rthumb 21.2547 -23.1151
lclavicle -2.44505e-014 3.02153e-014
lhumerus 59.3196 23.7308 0.0125449
lradius 89.4436
lwrist 1.79947
lhand -10.1782 9.58972
lfingers 7.12502
lthumb 15.8121 38.964
rfemur -5.11148 2.2871 16.6588
rtibia 34.7946
rfoot -25.7587 -5.76863
rtoes -4.7024
lfemur -13.3667 -1.94642 -9.75135
ltibia 39.9379
lfoot -23.476 -5.88868
ltoes -19.0499
